<svg width="57" height="57" viewBox="0 0 57 57" fill="none" xmlns="http://www.w3.org/2000/svg">
<path d="M48.1237 37.1094L36.866 48.3671C36.432 48.8011 36.0251 49.6421 35.9165 50.2389L35.2926 54.5521C35.0756 56.0983 36.1607 57.2105 37.7069 56.9664L42.0201 56.3424C42.6169 56.2611 43.4579 55.827 43.8919 55.393L55.1496 44.1353C57.0756 42.2093 57.9979 39.9306 55.1496 37.0823C52.3284 34.2611 50.0768 35.1563 48.1237 37.1094Z" fill="#3BD671"/>
<path d="M46.5238 38.7105C47.4732 42.1285 50.1588 44.7866 53.5768 45.7632L46.5238 38.7105Z" fill="#3BD671"/>
<path d="M2.81991 37.0004C2.81991 37.0818 2.76566 37.1903 2.76566 37.2716C5.26134 42.263 9.33041 46.3592 14.3218 48.8277C14.4032 48.8277 14.5116 48.7735 14.593 48.7735C13.6707 45.6268 12.9654 42.3986 12.45 39.1705C9.19475 38.628 5.96664 37.9227 2.81991 37.0004Z" fill="#3BD671"/>
<path d="M49.0452 14.7562C46.4953 9.41222 42.1821 5.09905 36.8652 2.57625C37.8418 5.80436 38.6556 9.11388 39.1981 12.4234C42.5076 12.9659 45.8171 13.7525 49.0452 14.7562Z" fill="#3BD671"/>
<path d="M2.5485 14.7565C5.80374 13.7799 9.11326 12.9662 12.4228 12.4237C12.9653 9.19554 13.6435 5.99456 14.5658 2.84783C14.4844 2.84783 14.3759 2.79352 14.2945 2.79352C9.19461 5.31633 5.04419 9.57527 2.5485 14.7565Z" fill="#3BD671"/>
<path d="M34.8025 11.8545C34.1515 8.32797 33.3376 4.80149 32.1712 1.38349C32.1169 1.1936 32.1169 1.03087 32.0898 0.813853C30.0824 0.325567 27.9665 0 25.7963 0C23.599 0 21.5103 0.29844 19.4757 0.813853C19.4486 1.00374 19.4757 1.16648 19.4215 1.38349C18.2821 4.80149 17.4412 8.32797 16.7902 11.8545C22.7852 11.2034 28.8074 11.2034 34.8025 11.8545Z" fill="#3BD671"/>
<path d="M11.8545 16.7916C8.30085 17.4426 4.80146 18.2564 1.38347 19.4229C1.19358 19.4771 1.03079 19.4771 0.813771 19.5043C0.325486 21.5117 0 23.6276 0 25.7978C0 27.9951 0.298359 30.0838 0.813771 32.1184C1.00366 32.1455 1.16645 32.1184 1.38347 32.1726C4.80146 33.3119 8.30085 34.1529 11.8545 34.8039C11.2034 28.8089 11.2034 22.7866 11.8545 16.7916Z" fill="#3BD671"/>
<path d="M50.7564 19.5043C50.5665 19.5043 50.4037 19.4771 50.1867 19.4229C46.7687 18.2836 43.2422 17.4426 39.7157 16.7916C40.3939 22.7866 40.3939 28.8089 39.7157 34.7768C43.2422 34.1258 46.7687 33.312 50.1867 32.1455C50.3766 32.0912 50.5394 32.1184 50.7564 32.0912C51.2447 30.0567 51.5702 27.9679 51.5702 25.7707C51.5702 23.6275 51.2718 21.5388 50.7564 19.5043Z" fill="#3BD671"/>
<path d="M16.7902 39.7407C17.4412 43.2944 18.255 46.7938 19.4215 50.2118C19.4757 50.4016 19.4486 50.5644 19.4757 50.7814C21.5103 51.2697 23.599 51.5952 25.7963 51.5952C27.9665 51.5952 30.0824 51.2968 32.0898 50.7814C32.1169 50.5915 32.1169 50.4288 32.1712 50.2118C33.3105 46.7938 34.1515 43.2944 34.8025 39.7407C31.8185 40.0663 28.8074 40.3104 25.7963 40.3104C22.7852 40.2833 19.7741 40.0663 16.7902 39.7407Z" fill="#3BD671"/>
<path d="M16.166 16.1674C15.3522 22.5694 15.3522 29.0256 16.166 35.4547C22.568 36.2685 29.0242 36.2685 35.4533 35.4547C36.2671 29.0527 36.2671 22.5965 35.4533 16.1674C29.0242 15.3536 22.568 15.3536 16.166 16.1674Z" fill="#3BD671"/>
</svg>
