<svg width="72" height="51" viewBox="0 0 72 51" fill="none" xmlns="http://www.w3.org/2000/svg">
<path d="M71.7411 44.2324L65.3306 36.2969V2.92373C65.3306 1.30939 64.0006 0 62.3605 0H9.6383C7.99833 0 6.66957 1.30925 6.66957 2.92373V36.2969L0.257906 44.2324C0.09 44.4393 0 44.6954 0 44.9612V48.4735C0 49.7624 1.06017 50.8059 2.36827 50.8059H69.6306C70.9387 50.8059 72 49.7624 72 48.4735V44.9612C72 44.6954 71.9088 44.4393 71.7411 44.2324ZM10.8589 4.12529H61.14V32.1717H10.8589V4.12529ZM42.7668 48.0321H29.2333V44.5052H42.7668V48.0321Z" fill="#3BD671"/>
<path d="M23.551 23.9239H18.5715V28.8257H23.551V23.9239Z" fill="#3BD671"/>
<path d="M31.0203 19.022H26.0407V28.8256H31.0203V19.022Z" fill="#3BD671"/>
<path d="M38.4898 16.5712H33.5102V28.8257H38.4898V16.5712Z" fill="#3BD671"/>
<path d="M45.9591 9.21864H40.9795V28.8258H45.9591V9.21864Z" fill="#3BD671"/>
<path d="M53.4285 14.1204H48.4489V28.8257H53.4285V14.1204Z" fill="#3BD671"/>
</svg>
