<svg width="56" height="56" viewBox="0 0 56 56" fill="none" xmlns="http://www.w3.org/2000/svg">
<path d="M52.2307 2.15381H3.76919C2.90765 2.15381 2.15381 2.90765 2.15381 3.76919V38.6615C2.15381 39.523 2.90765 40.2769 3.76919 40.2769H52.2307C53.0923 40.2769 53.8461 39.523 53.8461 38.6615V3.76919C53.8461 2.90765 53.0923 2.15381 52.2307 2.15381Z" fill="#3BD671"/>
<path d="M21.5384 53.8461C23.9175 53.8461 25.8461 51.9175 25.8461 49.5384C25.8461 47.1593 23.9175 45.2307 21.5384 45.2307C19.1593 45.2307 17.2307 47.1593 17.2307 49.5384C17.2307 51.9175 19.1593 53.8461 21.5384 53.8461Z" fill="#3BD671"/>
<path d="M8.61543 53.8461C10.9945 53.8461 12.9231 51.9175 12.9231 49.5384C12.9231 47.1593 10.9945 45.2307 8.61543 45.2307C6.23636 45.2307 4.30774 47.1593 4.30774 49.5384C4.30774 51.9175 6.23636 53.8461 8.61543 53.8461Z" fill="#3BD671"/>
<path d="M34.4615 47.3846C35.6461 47.3846 36.6153 48.3538 36.6153 49.5384C36.6153 50.723 35.6461 51.6923 34.4615 51.6923C33.2769 51.6923 32.3077 50.723 32.3077 49.5384C32.3077 48.3538 33.2769 47.3846 34.4615 47.3846ZM34.4615 45.2307C32.0923 45.2307 30.1538 47.1692 30.1538 49.5384C30.1538 51.9076 32.0923 53.8461 34.4615 53.8461C36.8307 53.8461 38.7692 51.9076 38.7692 49.5384C38.7692 47.1692 36.8307 45.2307 34.4615 45.2307Z" fill="#3BD671"/>
<path d="M47.3846 53.8461C49.7637 53.8461 51.6923 51.9175 51.6923 49.5384C51.6923 47.1593 49.7637 45.2307 47.3846 45.2307C45.0055 45.2307 43.0769 47.1593 43.0769 49.5384C43.0769 51.9175 45.0055 53.8461 47.3846 53.8461Z" fill="#3BD671"/>
</svg>
