<svg width="61" height="56" viewBox="0 0 61 56" fill="none" xmlns="http://www.w3.org/2000/svg">
<path d="M56.8388 0.00247718H4.16123C3.60988 -0.0168866 3.06044 0.0774394 2.54712 0.279584C2.0338 0.481728 1.56757 0.787364 1.17747 1.17747C0.787364 1.56757 0.481728 2.0338 0.279583 2.54712C0.0774391 3.06044 -0.0168866 3.60988 0.00247719 4.16123V20.6576H7.34961L9.84486 15.5285C10.0636 15.0562 10.4173 14.6593 10.8614 14.3879C11.3055 14.1166 11.8201 13.9828 12.3401 14.0036C12.8536 14.0151 13.3549 14.1622 13.7931 14.43C14.2313 14.6978 14.5909 15.0768 14.8354 15.5285L18.8555 23.9846L25.5095 9.84486C25.7365 9.37611 26.091 8.98079 26.5323 8.70418C26.9736 8.42757 27.4839 8.28086 28.0048 8.28086C28.5256 8.28086 29.0359 8.42757 29.4772 8.70418C29.9185 8.98079 30.273 9.37611 30.5 9.84486L35.6291 20.6576H38.8175C39.5528 20.6576 40.258 20.9497 40.778 21.4697C41.2979 21.9896 41.59 22.6948 41.59 23.4301C41.59 24.1654 41.2979 24.8706 40.778 25.3906C40.258 25.9105 39.5528 26.2026 38.8175 26.2026H33.827C33.303 26.1638 32.798 25.9902 32.3608 25.6988C31.9236 25.4073 31.5691 25.0079 31.3318 24.5391L28.0048 17.6079L21.3507 31.7476C21.1063 32.1993 20.7467 32.5783 20.3085 32.8461C19.8702 33.1139 19.369 33.261 18.8555 33.2725C18.3354 33.2933 17.8209 33.1596 17.3768 32.8882C16.9327 32.6168 16.579 32.2199 16.3602 31.7476L12.3401 23.2915L11.647 24.5391C11.4344 25.0265 11.0861 25.4424 10.6437 25.7374C10.2013 26.0323 9.68338 26.1938 9.15173 26.2026H0.00247719V42.9763C0.00247719 44.0792 0.44063 45.137 1.22055 45.9169C2.00047 46.6969 3.05826 47.135 4.16123 47.135H56.8388C57.9417 47.135 58.9995 46.6969 59.7794 45.9169C60.5594 45.137 60.9975 44.0792 60.9975 42.9763V4.16123C61.0169 3.60988 60.9226 3.06044 60.7204 2.54712C60.5183 2.0338 60.2126 1.56757 59.8225 1.17747C59.4324 0.787364 58.9662 0.481728 58.4529 0.279584C57.9396 0.0774394 57.3901 -0.0168866 56.8388 0.00247718ZM37.9858 37.9858C37.4739 38.5081 36.7763 38.8071 36.045 38.8175H30.5C29.7647 38.8175 29.0595 38.5254 28.5395 38.0055C28.0196 37.4855 27.7275 36.7803 27.7275 36.045C27.7057 35.6791 27.7695 35.3132 27.9139 34.9763C28.0582 34.6394 28.2792 34.3408 28.5593 34.1043C29.0711 33.5819 29.7687 33.2829 30.5 33.2725H36.045C36.7803 33.2725 37.4855 33.5646 38.0055 34.0845C38.5254 34.6045 38.8175 35.3097 38.8175 36.045C38.8393 36.4109 38.7755 36.7768 38.6311 37.1137C38.4868 37.4507 38.2658 37.7492 37.9858 37.9858ZM51.8483 37.9858C51.3364 38.5081 50.6388 38.8071 49.9075 38.8175H44.3625C43.6272 38.8175 42.922 38.5254 42.4021 38.0055C41.8821 37.4855 41.59 36.7803 41.59 36.045C41.5682 35.6791 41.632 35.3132 41.7764 34.9763C41.9208 34.6394 42.1417 34.3408 42.4218 34.1043C42.9336 33.5819 43.6312 33.2829 44.3625 33.2725H49.9075C50.6428 33.2725 51.348 33.5646 51.868 34.0845C52.3879 34.6045 52.68 35.3097 52.68 36.045C52.7019 36.4109 52.638 36.7768 52.4937 37.1137C52.3493 37.4507 52.1283 37.7492 51.8483 37.9858Z" fill="#3BD671"/>
<path d="M48.5213 49.9074H12.4787C11.7434 49.9074 11.0382 50.1995 10.5183 50.7194C9.99835 51.2394 9.70624 51.9446 9.70624 52.6799C9.70624 53.4152 9.99835 54.1204 10.5183 54.6404C11.0382 55.1603 11.7434 55.4524 12.4787 55.4524H48.5213C49.2566 55.4524 49.9618 55.1603 50.4817 54.6404C51.0017 54.1204 51.2938 53.4152 51.2938 52.6799C51.2938 51.9446 51.0017 51.2394 50.4817 50.7194C49.9618 50.1995 49.2566 49.9074 48.5213 49.9074Z" fill="#3BD671"/>
</svg>
