<svg width="183" height="31" viewBox="0 0 183 31" fill="none" xmlns="http://www.w3.org/2000/svg">
<path d="M49.2369 27.4036C43.6915 27.4036 40.7476 24.5967 40.7476 19.3873V3.49157H44.8055V10.2569H48.6643V13.9788H44.8055V19.3562C44.8055 22.437 46.0565 23.688 49.2369 23.688V27.4099V27.4036Z" fill="white"/>
<path d="M62.363 21.9266H66.7944C65.6803 25.3435 62.668 27.4721 58.5727 27.4721C53.3322 27.4721 49.8095 23.9556 49.8095 18.7089C49.8095 13.4622 53.326 10.0142 58.5727 10.0142C63.8194 10.0142 67.2986 13.4995 67.2986 18.7089C67.2986 19.1819 67.2675 19.6238 67.2301 20.0595H54.0044C54.4463 22.3934 56.1329 23.744 58.5353 23.744C60.2282 23.744 61.5477 23.1029 62.3568 21.9142L62.363 21.9266ZM62.8049 16.3438C62.0954 14.6883 60.5705 13.736 58.5416 13.736C56.5126 13.736 55.0251 14.6821 54.3156 16.3438H62.8049Z" fill="white"/>
<path d="M77.4186 23.7502C79.4849 23.7502 81.0034 22.7669 81.713 21.0428H85.939C85.0241 24.9701 81.881 27.4721 77.4496 27.4721C72.2091 27.4721 68.6865 23.9556 68.6865 18.7089C68.6865 13.4622 72.2029 10.0142 77.4496 10.0142C81.8499 10.0142 85.024 12.485 85.9078 16.3376H81.6819C80.9724 14.6821 79.4475 13.7298 77.4186 13.7298C74.6116 13.7298 72.7507 15.5907 72.7507 18.7338C72.7507 21.8768 74.6116 23.7378 77.4186 23.7378V23.7502Z" fill="white"/>
<path d="M91.3537 11.4394C92.3371 10.5245 93.7188 9.95194 95.6171 9.95194C100.658 9.95194 102.855 14.1468 102.855 17.0907V27.1733H98.7975V17.1965C98.7975 14.7941 97.0362 13.7112 95.0756 13.7112C93.1151 13.7112 91.3537 14.7941 91.3537 17.1965V27.1733H87.2958V3.4978H91.3537V11.4457V11.4394Z" fill="white"/>
<path d="M117.911 22.0574C117.911 25.5054 115.172 27.3663 111.314 27.3663C107.729 27.3663 105.426 25.7419 104.38 24.7959L106.546 21.6155C107.965 22.966 109.758 23.6444 111.419 23.6444C112.807 23.6444 113.853 23.1714 113.853 22.1881C113.853 19.2815 104.654 21.074 104.654 14.8813C104.654 11.7693 106.988 9.97686 110.809 9.97686C114.158 9.97686 116.355 11.3274 117.849 12.5473L115.683 15.6904C113.89 14.2029 112.129 13.6925 110.741 13.6925C109.353 13.6925 108.712 14.1344 108.712 14.8066C108.712 17.2774 117.911 15.7215 117.911 22.0449V22.0574Z" fill="#3BD671"/>
<path d="M127.72 10.0204C132.96 10.0204 136.446 13.5058 136.446 18.7151C136.446 23.9245 132.96 27.4783 127.72 27.4783C122.479 27.4783 118.957 23.9618 118.957 18.7151C118.957 13.4684 122.473 10.0204 127.72 10.0204ZM127.689 23.7564C130.533 23.7564 132.394 21.8955 132.394 18.7525C132.394 15.6094 130.533 13.7485 127.689 13.7485C124.844 13.7485 123.021 15.6094 123.021 18.7525C123.021 21.8955 124.882 23.7564 127.689 23.7564Z" fill="#3BD671"/>
<path d="M153.567 17.0907V27.1734H149.509V17.1965C149.509 14.7941 147.748 13.7112 145.788 13.7112C143.827 13.7112 142.066 14.7941 142.066 17.1965V27.1734H138.008V17.0907C138.008 14.1468 140.205 9.95194 145.788 9.95194C151.37 9.95194 153.567 14.1468 153.567 17.0907Z" fill="#3BD671"/>
<path d="M172.581 18.7774V27.1671H168.523V25.5427C167.714 26.5945 165.984 27.4721 163.519 27.4721C158.615 27.4721 155.098 23.9556 155.098 18.7089C155.098 13.4622 158.615 10.0142 163.824 10.0142C169.034 10.0142 172.588 13.5306 172.588 18.7774H172.581ZM163.855 13.736C161.011 13.736 159.156 15.597 159.156 18.74C159.156 21.8831 161.017 23.744 163.855 23.744C166.694 23.744 168.523 21.8831 168.523 18.74C168.523 15.597 166.662 13.736 163.855 13.736Z" fill="#3BD671"/>
<path d="M183 9.95194V13.6738C180.293 13.6738 178.668 14.9933 178.668 17.7006V27.1734H174.61V17.7006C174.61 12.5597 177.859 9.95194 183 9.95194Z" fill="#3BD671"/>
<path d="M6.69065 12.5908V5.50809H0V18.3541H12.8087V12.9269V12.5908H6.69065Z" fill="#3BD671"/>
<path d="M11.5017 0V5.38986H26.856V12.846H32.9678V12.6282V0H11.5017Z" fill="#3BD671"/>
<path d="M19.157 13.2008V25.1817H12.2423V30.9326C16.3065 30.9015 20.2088 31.0695 24.161 30.8205V13.1946H19.157V13.2008Z" fill="white"/>
</svg>
